<?xml version="1.0" standalone="no"?><!DOCTYPE svg PUBLIC "-//W3C//DTD SVG 1.1//EN" "http://www.w3.org/Graphics/SVG/1.1/DTD/svg11.dtd"><svg t="1669557917749" class="icon" viewBox="0 0 1024 1024" version="1.1" xmlns="http://www.w3.org/2000/svg" p-id="3448" xmlns:xlink="http://www.w3.org/1999/xlink" width="200" height="200"><path d="M896 512c12.8 0 21.333333-8.533333 21.333333-21.333333 0-189.866667-132.266667-320-345.6-343.466667-10.666667-38.4-32-70.4-64-89.6-25.6-14.933333-53.333333-19.2-76.8-8.533333-2.133333 0-2.133333 0-4.266666 2.133333-21.333333 12.8-21.333333 44.8-19.2 72.533333V149.333333C215.466667 187.733333 106.666667 311.466667 106.666667 490.666667c0 12.8 8.533333 21.333333 21.333333 21.333333s21.333333-8.533333 21.333333-21.333333C149.333333 270.933333 324.266667 206.933333 428.8 187.733333c6.4-2.133333 12.8-6.4 17.066667-12.8 6.4-14.933333 4.266667-34.133333 4.266666-53.333333 0-10.666667-2.133333-29.866667 0-34.133333 10.666667-2.133333 23.466667 0 36.266667 8.533333C512 108.8 526.933333 136.533333 533.333333 170.666667c2.133333 10.666667 8.533333 17.066667 19.2 19.2 200.533333 14.933333 322.133333 128 322.133334 300.8 0 12.8 8.533333 21.333333 21.333333 21.333333zM614.4 576c-12.8 0-21.333333 8.533333-21.333333 21.333333v341.333334c0 12.8 8.533333 21.333333 21.333333 21.333333s21.333333-8.533333 21.333333-21.333333V597.333333c0-10.666667-8.533333-21.333333-21.333333-21.333333zM763.733333 706.133333c-12.8 0-21.333333 8.533333-21.333333 21.333334V938.666667c0 12.8 8.533333 21.333333 21.333333 21.333333s21.333333-8.533333 21.333334-21.333333v-211.2c0-12.8-8.533333-21.333333-21.333334-21.333334zM893.866667 829.866667c12.8 0 21.333333-8.533333 21.333333-21.333334V597.333333c0-12.8-8.533333-21.333333-21.333333-21.333333s-21.333333 8.533333-21.333334 21.333333v211.2c0 10.666667 10.666667 21.333333 21.333334 21.333334zM763.733333 576c-12.8 0-21.333333 8.533333-21.333333 21.333333v42.666667c0 12.8 8.533333 21.333333 21.333333 21.333333s21.333333-8.533333 21.333334-21.333333v-42.666667c0-10.666667-8.533333-21.333333-21.333334-21.333333zM896 876.8c-12.8 0-21.333333 8.533333-21.333333 21.333333V938.666667c0 12.8 8.533333 21.333333 21.333333 21.333333s21.333333-8.533333 21.333333-21.333333v-40.533334c0-12.8-8.533333-21.333333-21.333333-21.333333z" fill="#666666" p-id="3449"></path><path d="M424.533333 435.2v-40.533333c0-17.066667-14.933333-32-32-32s-32 14.933333-32 32v40.533333c0 17.066667 14.933333 32 32 32s32-12.8 32-32zM650.666667 364.8c-17.066667 0-32 14.933333-32 32v40.533333c0 17.066667 14.933333 32 32 32s32-14.933333 32-32v-40.533333c0-19.2-14.933333-32-32-32zM416 576h-234.666667C140.8 576 106.666667 608 106.666667 650.666667v234.666666C106.666667 925.866667 140.8 960 181.333333 960h234.666667c40.533333 0 74.666667-34.133333 74.666667-74.666667v-234.666666c0-42.666667-32-74.666667-74.666667-74.666667zM448 885.333333c0 17.066667-14.933333 32-32 32h-234.666667c-17.066667 0-32-14.933333-32-32v-234.666666c0-17.066667 14.933333-32 32-32h234.666667c17.066667 0 32 14.933333 32 32v234.666666z" fill="#666666" p-id="3450"></path></svg>